# xmcd
# Track frame offsets:
# 150
# 21130
# 46598
# 59440
# 86747
# 105160
# 118729
# 134622
#
# Disc length: 1967 seconds
# Revision: 0
# Processed by: cddbd v1.5.2PL0 Copyright (c) Steve Scherf et al.
# Submitted via: VisiTrax 2.10.3.257 - For more info visit www.synapsa.com
#
DISCID=6207ad08
DTITLE=Peter Thorup - Blues Portrait
DYEAR=1900
DGENRE=Blues
TTITLE0=Come home in my kitchen
TTITLE1=You've got the power
TTITLE2=One Scotch, one bourbon, one beer
TTITLE3=Leave
TTITLE4=Don't change on me
TTITLE5=16 tons (in danish)
TTITLE6=Baby, it's cold outside
TTITLE7=Blue moon
EXTD=
EXTT0=
EXTT1=
EXTT2=
EXTT3=
EXTT4=
EXTT5=
EXTT6=
EXTT7=
PLAYORDER=
